<svg xmlns="http://www.w3.org/2000/svg" xmlns:xlink="http://www.w3.org/1999/xlink" width="1920" zoomAndPan="magnify" viewBox="0 0 1440 809.999993" height="1080" preserveAspectRatio="xMidYMid meet" version="1.0"><defs><g/></defs><g fill="#000000" fill-opacity="1"><g transform="translate(106.564454, 412.124618)"><g><path d="M 51.4375 61.046875 C 51.675781 65.117188 53.304688 66.753906 56.328125 65.953125 C 59.347656 65.148438 63.507812 62.3125 68.8125 57.4375 C 74.125 52.570312 80.289062 46.191406 87.3125 38.296875 C 94.34375 30.398438 102.082031 21.363281 110.53125 11.1875 C 118.976562 1.019531 127.796875 -9.828125 136.984375 -21.359375 C 146.179688 -32.898438 155.585938 -44.679688 165.203125 -56.703125 C 174.828125 -68.722656 184.382812 -80.53125 193.875 -92.125 C 203.375 -103.71875 212.5625 -114.664062 221.4375 -124.96875 C 230.320312 -135.269531 238.648438 -144.425781 246.421875 -152.4375 C 247.035156 -153.050781 248.175781 -154.097656 249.84375 -155.578125 C 251.507812 -157.066406 253.144531 -157.75 254.75 -157.625 C 255.613281 -157.625 256.164062 -157.375 256.40625 -156.875 C 256.65625 -156.382812 256.472656 -155.832031 255.859375 -155.21875 C 255.859375 -155.21875 254.191406 -153.117188 250.859375 -148.921875 C 247.523438 -144.734375 242.898438 -138.9375 236.984375 -131.53125 C 231.066406 -124.132812 224.222656 -115.59375 216.453125 -105.90625 C 208.679688 -96.226562 200.257812 -85.898438 191.1875 -74.921875 C 182.125 -63.941406 172.8125 -52.71875 163.25 -41.25 C 153.695312 -29.78125 144.203125 -18.523438 134.765625 -7.484375 C 125.335938 3.546875 116.304688 13.898438 107.671875 23.578125 C 99.035156 33.265625 91.140625 41.773438 83.984375 49.109375 C 76.835938 56.453125 70.765625 62.21875 65.765625 66.40625 C 60.773438 70.601562 57.226562 72.703125 55.125 72.703125 C 50.9375 72.703125 47.609375 71.40625 45.140625 68.8125 C 42.671875 66.226562 41.867188 62.835938 42.734375 58.640625 C 43.960938 52.597656 46.023438 45.472656 48.921875 37.265625 C 51.828125 29.066406 55.222656 20.1875 59.109375 10.625 C 62.992188 1.070312 67.09375 -8.785156 71.40625 -18.953125 C 75.726562 -29.128906 79.953125 -39.210938 84.078125 -49.203125 C 88.210938 -59.191406 91.910156 -68.78125 95.171875 -77.96875 C 98.441406 -87.164062 101.03125 -95.492188 102.9375 -102.953125 C 104.851562 -110.410156 105.691406 -116.671875 105.453125 -121.734375 C 105.328125 -126.296875 102.921875 -128.019531 98.234375 -126.90625 C 90.835938 -125.175781 83.34375 -121.691406 75.75 -116.453125 C 68.164062 -111.210938 60.859375 -105.046875 53.828125 -97.953125 C 46.804688 -90.859375 40.363281 -83.488281 34.5 -75.84375 C 28.644531 -68.195312 23.742188 -61.109375 19.796875 -54.578125 C 18.191406 -51.984375 16.617188 -48.773438 15.078125 -44.953125 C 13.535156 -41.128906 12.609375 -37.398438 12.296875 -33.765625 C 11.992188 -30.128906 12.890625 -27.257812 14.984375 -25.15625 C 15.972656 -24.175781 17.976562 -23.742188 21 -23.859375 C 24.019531 -23.984375 27.75 -25.3125 32.1875 -27.84375 C 36.625 -30.375 41.375 -34.84375 46.4375 -41.25 C 46.4375 -41.25 47.082031 -41.429688 48.375 -41.796875 C 49.664062 -42.171875 50.867188 -42.390625 51.984375 -42.453125 C 53.097656 -42.515625 53.40625 -42.113281 52.90625 -41.25 C 52.164062 -39.769531 50.625 -37.734375 48.28125 -35.140625 C 45.9375 -32.554688 43.097656 -29.9375 39.765625 -27.28125 C 36.441406 -24.632812 32.835938 -22.601562 28.953125 -21.1875 C 25.066406 -19.769531 21.210938 -19.488281 17.390625 -20.34375 C 13.441406 -21.457031 10.757812 -23.585938 9.34375 -26.734375 C 7.925781 -29.878906 7.492188 -33.484375 8.046875 -37.546875 C 8.597656 -41.617188 9.738281 -45.445312 11.46875 -49.03125 C 16.03125 -58.519531 21.300781 -67.332031 27.28125 -75.46875 C 33.269531 -83.613281 39.46875 -90.953125 45.875 -97.484375 C 52.289062 -104.023438 58.519531 -109.671875 64.5625 -114.421875 C 70.601562 -119.171875 76.0625 -122.992188 80.9375 -125.890625 C 85.8125 -128.785156 89.664062 -130.664062 92.5 -131.53125 C 98.414062 -133.257812 103.5625 -133.046875 107.9375 -130.890625 C 112.320312 -128.734375 114.578125 -124.570312 114.703125 -118.40625 C 114.941406 -113.71875 114.132812 -107.765625 112.28125 -100.546875 C 110.4375 -93.328125 107.878906 -85.273438 104.609375 -76.390625 C 101.347656 -67.515625 97.679688 -58.144531 93.609375 -48.28125 C 89.535156 -38.414062 85.34375 -28.425781 81.03125 -18.3125 C 76.71875 -8.195312 72.585938 1.695312 68.640625 11.375 C 64.691406 21.0625 61.207031 30.128906 58.1875 38.578125 C 55.164062 47.023438 52.914062 54.515625 51.4375 61.046875 Z M 51.4375 61.046875 "/></g></g></g><g fill="#000000" fill-opacity="1"><g transform="translate(275.09228, 412.124618)"><g><path d="M -17.765625 15.359375 C -19.734375 13.753906 -20.65625 11.347656 -20.53125 8.140625 C -20.40625 4.929688 -19.328125 1.382812 -17.296875 -2.5 C -15.265625 -6.382812 -12.457031 -10.144531 -8.875 -13.78125 C -5.300781 -17.414062 -1.046875 -20.40625 3.890625 -22.75 C 5.859375 -23.738281 8.257812 -24.234375 11.09375 -24.234375 C 13.9375 -24.234375 16.46875 -23.769531 18.6875 -22.84375 C 20.90625 -21.914062 22.078125 -20.65625 22.203125 -19.0625 C 22.203125 -19.0625 22.632812 -19.550781 23.5 -20.53125 C 24.363281 -21.519531 25.71875 -22.816406 27.5625 -24.421875 C 28.675781 -25.648438 30.25 -26.234375 32.28125 -26.171875 C 34.3125 -26.109375 36.128906 -25.769531 37.734375 -25.15625 C 39.335938 -24.539062 39.832031 -23.925781 39.21875 -23.3125 C 31.695312 -14.925781 26.578125 -7.429688 23.859375 -0.828125 C 21.148438 5.765625 20.78125 9.800781 22.75 11.28125 C 23.738281 11.894531 25.492188 11.523438 28.015625 10.171875 C 30.546875 8.816406 33.539062 6.84375 37 4.25 C 40.457031 1.664062 43.972656 -1.070312 47.546875 -3.96875 C 51.117188 -6.875 54.507812 -9.648438 57.71875 -12.296875 C 60.925781 -14.953125 63.546875 -17.050781 65.578125 -18.59375 C 67.617188 -20.132812 68.757812 -20.71875 69 -20.34375 C 69.125 -20.101562 68.257812 -18.960938 66.40625 -16.921875 C 64.5625 -14.890625 62.097656 -12.363281 59.015625 -9.34375 C 55.929688 -6.320312 52.507812 -3.207031 48.75 0 C 44.988281 3.207031 41.222656 6.132812 37.453125 8.78125 C 33.691406 11.4375 30.269531 13.410156 27.1875 14.703125 C 24.101562 16.003906 21.640625 16.222656 19.796875 15.359375 C 17.078125 13.992188 15.101562 11.925781 13.875 9.15625 C 12.644531 6.382812 13.203125 2.160156 15.546875 -3.515625 C 13.203125 -0.429688 10.515625 2.585938 7.484375 5.546875 C 4.460938 8.503906 1.351562 11.0625 -1.84375 13.21875 C -5.050781 15.382812 -8.039062 16.742188 -10.8125 17.296875 C -13.59375 17.847656 -15.910156 17.203125 -17.765625 15.359375 Z M 19.421875 -18.3125 C 18.191406 -20.164062 16.375 -20.8125 13.96875 -20.25 C 11.5625 -19.695312 8.9375 -18.34375 6.09375 -16.1875 C 3.257812 -14.03125 0.457031 -11.46875 -2.3125 -8.5 C -5.082031 -5.539062 -7.484375 -2.550781 -9.515625 0.46875 C -11.554688 3.488281 -13.007812 6.195312 -13.875 8.59375 C -14.738281 11 -14.675781 12.695312 -13.6875 13.6875 C -13.070312 14.300781 -11.46875 14.019531 -8.875 12.84375 C -6.289062 11.675781 -3.640625 9.921875 -0.921875 7.578125 C 2.035156 4.992188 5.207031 1.851562 8.59375 -1.84375 C 11.988281 -5.550781 14.859375 -8.695312 17.203125 -11.28125 C 17.816406 -11.894531 18.492188 -12.941406 19.234375 -14.421875 C 19.972656 -15.910156 20.035156 -17.207031 19.421875 -18.3125 Z M 19.421875 -18.3125 "/></g></g></g><g fill="#000000" fill-opacity="1"><g transform="translate(342.614513, 412.124618)"><g><path d="M -19.609375 13.140625 C -21.460938 11.773438 -21.832031 9.921875 -20.71875 7.578125 C -17.757812 2.035156 -14.429688 -3.320312 -10.734375 -8.5 C -7.035156 -13.6875 -3.085938 -18.625 1.109375 -23.3125 C 1.597656 -23.800781 2.148438 -24.226562 2.765625 -24.59375 C 3.390625 -24.96875 4.316406 -24.847656 5.546875 -24.234375 C 1.597656 -17.578125 -1.546875 -12.273438 -3.890625 -8.328125 C -6.234375 -4.378906 -7.925781 -1.390625 -8.96875 0.640625 C -10.019531 2.679688 -10.671875 4.132812 -10.921875 5 C -8.453125 3.019531 -5.644531 0.582031 -2.5 -2.3125 C 0.644531 -5.207031 3.910156 -8.257812 7.296875 -11.46875 C 10.691406 -14.675781 14.023438 -17.632812 17.296875 -20.34375 C 20.566406 -23.0625 23.679688 -25.222656 26.640625 -26.828125 C 28.734375 -28.054688 30.644531 -28.175781 32.375 -27.1875 C 34.101562 -26.207031 35.457031 -24.882812 36.4375 -23.21875 C 37.425781 -21.550781 37.738281 -20.164062 37.375 -19.0625 C 37.25 -17.820312 36.445312 -15.90625 34.96875 -13.3125 C 33.488281 -10.726562 31.851562 -8.015625 30.0625 -5.171875 C 28.269531 -2.335938 26.878906 0.28125 25.890625 2.6875 C 24.910156 5.09375 24.851562 6.785156 25.71875 7.765625 C 26.582031 8.628906 28.1875 8.472656 30.53125 7.296875 C 32.875 6.128906 35.675781 4.3125 38.9375 1.84375 C 42.207031 -0.613281 45.566406 -3.289062 49.015625 -6.1875 C 52.472656 -9.09375 55.679688 -11.804688 58.640625 -14.328125 C 61.597656 -16.859375 64.003906 -18.742188 65.859375 -19.984375 C 67.335938 -21.210938 68.226562 -21.796875 68.53125 -21.734375 C 68.84375 -21.671875 68.9375 -21.394531 68.8125 -20.90625 C 68.695312 -20.414062 68.515625 -19.984375 68.265625 -19.609375 C 66.785156 -18.003906 64.535156 -15.8125 61.515625 -13.03125 C 58.492188 -10.257812 55.160156 -7.332031 51.515625 -4.25 C 47.878906 -1.164062 44.332031 1.726562 40.875 4.4375 C 37.425781 7.15625 34.46875 9.253906 32 10.734375 C 30.394531 11.710938 28.515625 12.359375 26.359375 12.671875 C 24.203125 12.984375 22.320312 12.457031 20.71875 11.09375 C 18.5 9.375 17.359375 7.742188 17.296875 6.203125 C 17.234375 4.660156 17.507812 2.898438 18.125 0.921875 C 19.363281 -2.523438 20.9375 -5.914062 22.84375 -9.25 C 24.757812 -12.582031 26.457031 -15.445312 27.9375 -17.84375 C 29.414062 -20.25 29.96875 -21.640625 29.59375 -22.015625 C 28.976562 -22.265625 27.40625 -21.429688 24.875 -19.515625 C 22.351562 -17.609375 19.425781 -15.203125 16.09375 -12.296875 C 12.757812 -9.398438 9.425781 -6.410156 6.09375 -3.328125 C 2.769531 -0.242188 -0.148438 2.5 -2.671875 4.90625 C -5.203125 7.3125 -6.78125 8.820312 -7.40625 9.4375 C -8.257812 10.300781 -9.148438 11.132812 -10.078125 11.9375 C -11.003906 12.738281 -11.960938 13.507812 -12.953125 14.25 C -14.179688 15.113281 -15.347656 15.296875 -16.453125 14.796875 C -17.566406 14.304688 -18.617188 13.753906 -19.609375 13.140625 Z M -19.609375 13.140625 "/></g></g></g><g fill="#000000" fill-opacity="1"><g transform="translate(409.211685, 412.124618)"><g><path d="M 0.921875 14.609375 C -9.191406 17.328125 -15.601562 15.726562 -18.3125 9.8125 C -19.550781 6.96875 -19.890625 4.15625 -19.328125 1.375 C -18.773438 -1.394531 -17.726562 -4.070312 -16.1875 -6.65625 C -14.644531 -9.25 -13.070312 -11.53125 -11.46875 -13.5 C -9.5 -15.96875 -6.910156 -18.15625 -3.703125 -20.0625 C -0.492188 -21.976562 2.863281 -23.304688 6.375 -24.046875 C 9.894531 -24.785156 12.953125 -24.539062 15.546875 -23.3125 C 18.003906 -22.320312 19.632812 -20.59375 20.4375 -18.125 C 21.238281 -15.664062 20.78125 -13.507812 19.0625 -11.65625 C 15.601562 -8.195312 11.53125 -5.453125 6.84375 -3.421875 C 2.15625 -1.390625 -2.097656 -0.554688 -5.921875 -0.921875 C -7.890625 -1.046875 -9.179688 -1.320312 -9.796875 -1.75 C -10.421875 -2.1875 -10.851562 -2.097656 -11.09375 -1.484375 C -12.570312 2.460938 -12.632812 5.421875 -11.28125 7.390625 C -9.925781 9.367188 -8.265625 10.359375 -6.296875 10.359375 C -3.210938 10.609375 0.300781 10.019531 4.25 8.59375 C 8.195312 7.175781 12.296875 5.265625 16.546875 2.859375 C 20.804688 0.460938 24.878906 -2.054688 28.765625 -4.703125 C 32.648438 -7.359375 36.070312 -9.765625 39.03125 -11.921875 C 41.988281 -14.085938 44.148438 -15.664062 45.515625 -16.65625 C 47.234375 -18.007812 48.335938 -18.65625 48.828125 -18.59375 C 49.328125 -18.53125 48.773438 -17.632812 47.171875 -15.90625 C 43.960938 -13.195312 39.953125 -9.804688 35.140625 -5.734375 C 30.335938 -1.660156 25.035156 2.285156 19.234375 6.109375 C 13.441406 9.929688 7.335938 12.765625 0.921875 14.609375 Z M 11.09375 -20.53125 C 6.90625 -19.664062 3.054688 -17.816406 -0.453125 -14.984375 C -3.972656 -12.148438 -6.71875 -9.3125 -8.6875 -6.46875 C -5.113281 -5.238281 -1.203125 -5.457031 3.046875 -7.125 C 7.304688 -8.789062 10.976562 -11.226562 14.0625 -14.4375 C 14.800781 -15.175781 15.539062 -16.160156 16.28125 -17.390625 C 17.019531 -18.617188 16.894531 -19.546875 15.90625 -20.171875 C 15.414062 -20.660156 14.738281 -20.90625 13.875 -20.90625 C 13.007812 -20.90625 12.082031 -20.78125 11.09375 -20.53125 Z M 11.09375 -20.53125 "/></g></g></g><g fill="#000000" fill-opacity="1"><g transform="translate(456.754652, 412.124618)"><g><path d="M -49.03125 50.6875 C -47.300781 46.375 -43.597656 41.535156 -37.921875 36.171875 C -32.253906 30.804688 -25.441406 25.316406 -17.484375 19.703125 C -9.523438 14.085938 -1.226562 8.753906 7.40625 3.703125 C 5.300781 0.367188 3.109375 -2.988281 0.828125 -6.375 C -1.453125 -9.769531 -2.34375 -13.441406 -1.84375 -17.390625 C -1.226562 -21.828125 0.25 -25.429688 2.59375 -28.203125 C 4.9375 -30.984375 7.617188 -33.144531 10.640625 -34.6875 C 13.660156 -36.226562 16.492188 -37.304688 19.140625 -37.921875 C 21.796875 -38.535156 23.769531 -38.875 25.0625 -38.9375 C 26.363281 -39 26.394531 -38.96875 25.15625 -38.84375 C 28.976562 -39.21875 31.90625 -38.570312 33.9375 -36.90625 C 35.976562 -35.238281 36.71875 -32.894531 36.15625 -29.875 C 35.601562 -26.851562 33.234375 -23.304688 29.046875 -19.234375 C 28.429688 -18.742188 27.503906 -18.191406 26.265625 -17.578125 C 25.035156 -16.960938 24.113281 -16.835938 23.5 -17.203125 C 23 -17.578125 23.117188 -18.132812 23.859375 -18.875 C 25.710938 -20.96875 27.441406 -23.125 29.046875 -25.34375 C 30.648438 -27.5625 31.484375 -29.472656 31.546875 -31.078125 C 31.609375 -32.679688 30.28125 -33.546875 27.5625 -33.671875 C 24.476562 -33.671875 21.238281 -33.019531 17.84375 -31.71875 C 14.457031 -30.425781 11.5625 -28.546875 9.15625 -26.078125 C 6.75 -23.617188 5.425781 -20.597656 5.1875 -17.015625 C 4.9375 -14.179688 5.859375 -11.40625 7.953125 -8.6875 C 10.046875 -5.976562 12.144531 -3.144531 14.25 -0.1875 C 21.03125 -4.007812 27.566406 -7.398438 33.859375 -10.359375 C 40.148438 -13.316406 45.820312 -15.75 50.875 -17.65625 C 55.925781 -19.570312 59.992188 -20.71875 63.078125 -21.09375 C 64.441406 -21.21875 65.15625 -21.09375 65.21875 -20.71875 C 65.28125 -20.351562 65.367188 -20.226562 65.484375 -20.34375 C 62.285156 -19.851562 58.09375 -18.5 52.90625 -16.28125 C 47.726562 -14.0625 41.992188 -11.316406 35.703125 -8.046875 C 29.410156 -4.773438 22.9375 -1.164062 16.28125 2.78125 C 17.882812 5.238281 19.023438 7.945312 19.703125 10.90625 C 20.378906 13.875 20.039062 17.144531 18.6875 20.71875 C 17.332031 24.789062 14.957031 28.890625 11.5625 33.015625 C 8.164062 37.148438 4.1875 41.066406 -0.375 44.765625 C -4.9375 48.460938 -9.710938 51.695312 -14.703125 54.46875 C -19.703125 57.25 -24.515625 59.347656 -29.140625 60.765625 C -33.765625 62.191406 -37.863281 62.65625 -41.4375 62.15625 C -42.425781 62.03125 -43.753906 61.660156 -45.421875 61.046875 C -47.085938 60.429688 -48.378906 59.289062 -49.296875 57.625 C -50.222656 55.957031 -50.132812 53.644531 -49.03125 50.6875 Z M 9.25 7.03125 C 1.726562 11.71875 -5.546875 16.585938 -12.578125 21.640625 C -19.609375 26.703125 -25.710938 31.578125 -30.890625 36.265625 C -36.078125 40.953125 -39.84375 45.082031 -42.1875 48.65625 C -43.164062 50.257812 -43.992188 52.203125 -44.671875 54.484375 C -45.347656 56.765625 -44.703125 58.085938 -42.734375 58.453125 C -40.765625 58.828125 -37.804688 58.117188 -33.859375 56.328125 C -29.910156 54.546875 -25.59375 52.082031 -20.90625 48.9375 C -16.21875 45.789062 -11.65625 42.335938 -7.21875 38.578125 C -2.78125 34.816406 1.070312 31.113281 4.34375 27.46875 C 7.613281 23.832031 9.679688 20.65625 10.546875 17.9375 C 11.160156 15.96875 11.34375 14.085938 11.09375 12.296875 C 10.851562 10.515625 10.238281 8.757812 9.25 7.03125 Z M 9.25 7.03125 "/></g></g></g><g fill="#000000" fill-opacity="1"><g transform="translate(518.911997, 412.124618)"><g><path d="M -49.03125 50.6875 C -47.300781 46.375 -43.597656 41.535156 -37.921875 36.171875 C -32.253906 30.804688 -25.441406 25.316406 -17.484375 19.703125 C -9.523438 14.085938 -1.226562 8.753906 7.40625 3.703125 C 5.300781 0.367188 3.109375 -2.988281 0.828125 -6.375 C -1.453125 -9.769531 -2.34375 -13.441406 -1.84375 -17.390625 C -1.226562 -21.828125 0.25 -25.429688 2.59375 -28.203125 C 4.9375 -30.984375 7.617188 -33.144531 10.640625 -34.6875 C 13.660156 -36.226562 16.492188 -37.304688 19.140625 -37.921875 C 21.796875 -38.535156 23.769531 -38.875 25.0625 -38.9375 C 26.363281 -39 26.394531 -38.96875 25.15625 -38.84375 C 28.976562 -39.21875 31.90625 -38.570312 33.9375 -36.90625 C 35.976562 -35.238281 36.71875 -32.894531 36.15625 -29.875 C 35.601562 -26.851562 33.234375 -23.304688 29.046875 -19.234375 C 28.429688 -18.742188 27.503906 -18.191406 26.265625 -17.578125 C 25.035156 -16.960938 24.113281 -16.835938 23.5 -17.203125 C 23 -17.578125 23.117188 -18.132812 23.859375 -18.875 C 25.710938 -20.96875 27.441406 -23.125 29.046875 -25.34375 C 30.648438 -27.5625 31.484375 -29.472656 31.546875 -31.078125 C 31.609375 -32.679688 30.28125 -33.546875 27.5625 -33.671875 C 24.476562 -33.671875 21.238281 -33.019531 17.84375 -31.71875 C 14.457031 -30.425781 11.5625 -28.546875 9.15625 -26.078125 C 6.75 -23.617188 5.425781 -20.597656 5.1875 -17.015625 C 4.9375 -14.179688 5.859375 -11.40625 7.953125 -8.6875 C 10.046875 -5.976562 12.144531 -3.144531 14.25 -0.1875 C 21.03125 -4.007812 27.566406 -7.398438 33.859375 -10.359375 C 40.148438 -13.316406 45.820312 -15.75 50.875 -17.65625 C 55.925781 -19.570312 59.992188 -20.71875 63.078125 -21.09375 C 64.441406 -21.21875 65.15625 -21.09375 65.21875 -20.71875 C 65.28125 -20.351562 65.367188 -20.226562 65.484375 -20.34375 C 62.285156 -19.851562 58.09375 -18.5 52.90625 -16.28125 C 47.726562 -14.0625 41.992188 -11.316406 35.703125 -8.046875 C 29.410156 -4.773438 22.9375 -1.164062 16.28125 2.78125 C 17.882812 5.238281 19.023438 7.945312 19.703125 10.90625 C 20.378906 13.875 20.039062 17.144531 18.6875 20.71875 C 17.332031 24.789062 14.957031 28.890625 11.5625 33.015625 C 8.164062 37.148438 4.1875 41.066406 -0.375 44.765625 C -4.9375 48.460938 -9.710938 51.695312 -14.703125 54.46875 C -19.703125 57.25 -24.515625 59.347656 -29.140625 60.765625 C -33.765625 62.191406 -37.863281 62.65625 -41.4375 62.15625 C -42.425781 62.03125 -43.753906 61.660156 -45.421875 61.046875 C -47.085938 60.429688 -48.378906 59.289062 -49.296875 57.625 C -50.222656 55.957031 -50.132812 53.644531 -49.03125 50.6875 Z M 9.25 7.03125 C 1.726562 11.71875 -5.546875 16.585938 -12.578125 21.640625 C -19.609375 26.703125 -25.710938 31.578125 -30.890625 36.265625 C -36.078125 40.953125 -39.84375 45.082031 -42.1875 48.65625 C -43.164062 50.257812 -43.992188 52.203125 -44.671875 54.484375 C -45.347656 56.765625 -44.703125 58.085938 -42.734375 58.453125 C -40.765625 58.828125 -37.804688 58.117188 -33.859375 56.328125 C -29.910156 54.546875 -25.59375 52.082031 -20.90625 48.9375 C -16.21875 45.789062 -11.65625 42.335938 -7.21875 38.578125 C -2.78125 34.816406 1.070312 31.113281 4.34375 27.46875 C 7.613281 23.832031 9.679688 20.65625 10.546875 17.9375 C 11.160156 15.96875 11.34375 14.085938 11.09375 12.296875 C 10.851562 10.515625 10.238281 8.757812 9.25 7.03125 Z M 9.25 7.03125 "/></g></g></g><g fill="#000000" fill-opacity="1"><g transform="translate(581.069343, 412.124618)"><g><path d="M -17.765625 15.359375 C -19.734375 13.753906 -20.65625 11.347656 -20.53125 8.140625 C -20.40625 4.929688 -19.328125 1.382812 -17.296875 -2.5 C -15.265625 -6.382812 -12.457031 -10.144531 -8.875 -13.78125 C -5.300781 -17.414062 -1.046875 -20.40625 3.890625 -22.75 C 5.859375 -23.738281 8.257812 -24.234375 11.09375 -24.234375 C 13.9375 -24.234375 16.46875 -23.769531 18.6875 -22.84375 C 20.90625 -21.914062 22.078125 -20.65625 22.203125 -19.0625 C 22.203125 -19.0625 22.632812 -19.550781 23.5 -20.53125 C 24.363281 -21.519531 25.71875 -22.816406 27.5625 -24.421875 C 28.675781 -25.648438 30.25 -26.234375 32.28125 -26.171875 C 34.3125 -26.109375 36.128906 -25.769531 37.734375 -25.15625 C 39.335938 -24.539062 39.832031 -23.925781 39.21875 -23.3125 C 31.695312 -14.925781 26.578125 -7.429688 23.859375 -0.828125 C 21.148438 5.765625 20.78125 9.800781 22.75 11.28125 C 23.738281 11.894531 25.492188 11.523438 28.015625 10.171875 C 30.546875 8.816406 33.539062 6.84375 37 4.25 C 40.457031 1.664062 43.972656 -1.070312 47.546875 -3.96875 C 51.117188 -6.875 54.507812 -9.648438 57.71875 -12.296875 C 60.925781 -14.953125 63.546875 -17.050781 65.578125 -18.59375 C 67.617188 -20.132812 68.757812 -20.71875 69 -20.34375 C 69.125 -20.101562 68.257812 -18.960938 66.40625 -16.921875 C 64.5625 -14.890625 62.097656 -12.363281 59.015625 -9.34375 C 55.929688 -6.320312 52.507812 -3.207031 48.75 0 C 44.988281 3.207031 41.222656 6.132812 37.453125 8.78125 C 33.691406 11.4375 30.269531 13.410156 27.1875 14.703125 C 24.101562 16.003906 21.640625 16.222656 19.796875 15.359375 C 17.078125 13.992188 15.101562 11.925781 13.875 9.15625 C 12.644531 6.382812 13.203125 2.160156 15.546875 -3.515625 C 13.203125 -0.429688 10.515625 2.585938 7.484375 5.546875 C 4.460938 8.503906 1.351562 11.0625 -1.84375 13.21875 C -5.050781 15.382812 -8.039062 16.742188 -10.8125 17.296875 C -13.59375 17.847656 -15.910156 17.203125 -17.765625 15.359375 Z M 19.421875 -18.3125 C 18.191406 -20.164062 16.375 -20.8125 13.96875 -20.25 C 11.5625 -19.695312 8.9375 -18.34375 6.09375 -16.1875 C 3.257812 -14.03125 0.457031 -11.46875 -2.3125 -8.5 C -5.082031 -5.539062 -7.484375 -2.550781 -9.515625 0.46875 C -11.554688 3.488281 -13.007812 6.195312 -13.875 8.59375 C -14.738281 11 -14.675781 12.695312 -13.6875 13.6875 C -13.070312 14.300781 -11.46875 14.019531 -8.875 12.84375 C -6.289062 11.675781 -3.640625 9.921875 -0.921875 7.578125 C 2.035156 4.992188 5.207031 1.851562 8.59375 -1.84375 C 11.988281 -5.550781 14.859375 -8.695312 17.203125 -11.28125 C 17.816406 -11.894531 18.492188 -12.941406 19.234375 -14.421875 C 19.972656 -15.910156 20.035156 -17.207031 19.421875 -18.3125 Z M 19.421875 -18.3125 "/></g></g></g><g fill="#000000" fill-opacity="1"><g transform="translate(646.74158, 412.124618)"><g/></g></g><g fill="#000000" fill-opacity="1"><g transform="translate(720.738434, 412.124618)"><g><path d="M 17.9375 82.140625 C 14.738281 83.128906 12.179688 83.46875 10.265625 83.15625 C 8.359375 82.84375 6.476562 81.394531 4.625 78.8125 C 3.269531 76.832031 3.207031 74.425781 4.4375 71.59375 C 5.675781 68.757812 7.523438 65.800781 9.984375 62.71875 C 15.410156 57.164062 21.238281 52.226562 27.46875 47.90625 C 33.695312 43.59375 39.832031 39.800781 45.875 36.53125 C 51.914062 33.269531 57.460938 30.523438 62.515625 28.296875 C 67.578125 26.078125 71.742188 24.351562 75.015625 23.125 C 78.285156 21.894531 80.164062 21.09375 80.65625 20.71875 C 81.769531 19.976562 83.898438 17.816406 87.046875 14.234375 C 90.191406 10.660156 94.015625 6.066406 98.515625 0.453125 C 103.015625 -5.148438 107.820312 -11.3125 112.9375 -18.03125 C 118.0625 -24.757812 123.210938 -31.664062 128.390625 -38.75 C 133.566406 -45.84375 138.46875 -52.6875 143.09375 -59.28125 C 147.71875 -65.882812 151.695312 -71.804688 155.03125 -77.046875 C 158.363281 -82.296875 160.707031 -86.460938 162.0625 -89.546875 C 162.0625 -89.785156 162.273438 -90.398438 162.703125 -91.390625 C 163.140625 -92.378906 163.414062 -93.363281 163.53125 -94.34375 C 163.65625 -95.332031 163.378906 -95.796875 162.703125 -95.734375 C 162.023438 -95.671875 160.578125 -94.65625 158.359375 -92.6875 C 154.046875 -88.613281 148.554688 -83.585938 141.890625 -77.609375 C 135.234375 -71.628906 127.863281 -65.1875 119.78125 -58.28125 C 111.707031 -51.375 103.351562 -44.375 94.71875 -37.28125 C 86.082031 -30.1875 77.539062 -23.429688 69.09375 -17.015625 C 60.644531 -10.609375 52.691406 -4.9375 45.234375 0 C 37.773438 4.9375 31.269531 8.632812 25.71875 11.09375 C 22.257812 12.570312 18.863281 13.34375 15.53125 13.40625 C 12.207031 13.46875 9.679688 12.640625 7.953125 10.921875 C 5.484375 8.453125 4.3125 5.644531 4.4375 2.5 C 4.5625 -0.644531 5.054688 -3.632812 5.921875 -6.46875 C 8.878906 -15.601562 13.441406 -24.765625 19.609375 -33.953125 C 25.773438 -43.140625 32.988281 -52.140625 41.25 -60.953125 C 49.519531 -69.773438 58.335938 -78.160156 67.703125 -86.109375 C 77.078125 -94.066406 86.570312 -101.34375 96.1875 -107.9375 C 105.8125 -114.539062 115.03125 -120.273438 123.84375 -125.140625 C 132.664062 -130.015625 140.625 -133.75 147.71875 -136.34375 C 154.8125 -138.9375 160.457031 -140.171875 164.65625 -140.046875 C 168.226562 -139.921875 171.09375 -139.519531 173.25 -138.84375 C 175.40625 -138.164062 176.796875 -136.53125 177.421875 -133.9375 C 177.296875 -134.0625 177.203125 -134.15625 177.140625 -134.21875 C 177.078125 -134.28125 176.984375 -134.375 176.859375 -134.5 C 174.890625 -136.101562 172.671875 -136.78125 170.203125 -136.53125 C 169.828125 -136.53125 169.394531 -136.40625 168.90625 -136.15625 C 168.78125 -136.15625 168.6875 -136.1875 168.625 -136.25 C 168.5625 -136.3125 168.46875 -136.34375 168.34375 -136.34375 C 167.488281 -136.34375 166.6875 -136.160156 165.9375 -135.796875 C 165.445312 -135.796875 165.019531 -135.734375 164.65625 -135.609375 C 159.59375 -134.992188 153.238281 -132.769531 145.59375 -128.9375 C 137.945312 -125.113281 129.617188 -120.179688 120.609375 -114.140625 C 111.609375 -108.097656 102.359375 -101.253906 92.859375 -93.609375 C 83.367188 -85.960938 74.148438 -77.882812 65.203125 -69.375 C 56.265625 -60.863281 48.09375 -52.289062 40.6875 -43.65625 C 33.289062 -35.019531 27.1875 -26.691406 22.375 -18.671875 C 17.570312 -10.660156 14.550781 -3.328125 13.3125 3.328125 C 12.945312 5.054688 13.410156 6.351562 14.703125 7.21875 C 16.003906 8.082031 17.578125 8.265625 19.421875 7.765625 C 24.359375 6.160156 30.15625 3.328125 36.8125 -0.734375 C 43.476562 -4.804688 50.632812 -9.738281 58.28125 -15.53125 C 65.925781 -21.332031 73.785156 -27.59375 81.859375 -34.3125 C 89.941406 -41.039062 97.957031 -47.796875 105.90625 -54.578125 C 113.863281 -61.359375 121.390625 -67.832031 128.484375 -74 C 135.578125 -80.164062 141.988281 -85.59375 147.71875 -90.28125 C 153.457031 -94.96875 158.175781 -98.539062 161.875 -101 C 165.570312 -103.46875 167.976562 -104.394531 169.09375 -103.78125 C 171.1875 -102.550781 172.203125 -100.945312 172.140625 -98.96875 C 172.078125 -97 171.550781 -95.03125 170.5625 -93.0625 C 166.625 -85.164062 162.125 -76.992188 157.0625 -68.546875 C 152.007812 -60.097656 146.707031 -51.707031 141.15625 -43.375 C 135.601562 -35.050781 130.082031 -27.066406 124.59375 -19.421875 C 119.101562 -11.773438 113.890625 -4.78125 108.953125 1.5625 C 104.023438 7.914062 99.773438 13.316406 96.203125 17.765625 C 101.015625 16.285156 105.640625 15.171875 110.078125 14.421875 C 114.515625 13.679688 118.273438 13.28125 121.359375 13.21875 C 124.441406 13.164062 126.289062 13.570312 126.90625 14.4375 C 125.0625 14.1875 122.410156 14.367188 118.953125 14.984375 C 115.503906 15.597656 111.925781 16.457031 108.21875 17.5625 C 104.519531 18.675781 101.128906 19.726562 98.046875 20.71875 C 94.960938 21.707031 92.867188 22.445312 91.765625 22.9375 C 82.515625 32.1875 73.910156 40.445312 65.953125 47.71875 C 57.992188 55 51.859375 60.429688 47.546875 64.015625 C 42.859375 67.835938 38.203125 71.320312 33.578125 74.46875 C 28.953125 77.613281 23.738281 80.171875 17.9375 82.140625 Z M 77.140625 26.265625 C 74.054688 27.128906 70.109375 28.796875 65.296875 31.265625 C 60.492188 33.734375 55.347656 36.660156 49.859375 40.046875 C 44.367188 43.441406 39.0625 46.988281 33.9375 50.6875 C 28.820312 54.382812 24.320312 57.929688 20.4375 61.328125 C 16.550781 64.722656 13.835938 67.742188 12.296875 70.390625 C 10.753906 73.046875 10.847656 74.925781 12.578125 76.03125 C 15.410156 75.539062 18.984375 74.03125 23.296875 71.5 C 27.617188 68.96875 32.273438 65.789062 37.265625 61.96875 C 42.265625 58.144531 47.171875 54.164062 51.984375 50.03125 C 56.796875 45.90625 61.144531 42.023438 65.03125 38.390625 C 68.914062 34.753906 71.96875 31.789062 74.1875 29.5 C 76.40625 27.21875 77.390625 26.140625 77.140625 26.265625 Z M 77.140625 26.265625 "/></g></g></g><g fill="#000000" fill-opacity="1"><g transform="translate(876.316828, 412.124618)"><g><path d="M 41.0625 -17.015625 C 41.6875 -17.265625 42.242188 -17.296875 42.734375 -17.109375 C 43.222656 -16.921875 43.285156 -16.769531 42.921875 -16.65625 C 37.984375 -13.6875 33.382812 -11.03125 29.125 -8.6875 C 24.875 -6.351562 20.160156 -4.070312 14.984375 -1.84375 C 11.285156 2.59375 6.9375 6.535156 1.9375 9.984375 C -3.050781 13.441406 -7.707031 15.476562 -12.03125 16.09375 C -13.507812 16.21875 -14.894531 16.125 -16.1875 15.8125 C -17.476562 15.507812 -18.554688 14.675781 -19.421875 13.3125 C -20.898438 11.09375 -20.992188 8.472656 -19.703125 5.453125 C -18.410156 2.429688 -16.46875 -0.367188 -13.875 -2.953125 C -15.101562 -4.554688 -14.945312 -6.679688 -13.40625 -9.328125 C -11.863281 -11.984375 -9.457031 -14.640625 -6.1875 -17.296875 C -2.925781 -19.953125 0.738281 -22.078125 4.8125 -23.671875 C 8.882812 -25.273438 12.769531 -25.832031 16.46875 -25.34375 C 18.3125 -25.21875 19.847656 -24.351562 21.078125 -22.75 C 22.316406 -21.144531 22.8125 -19.539062 22.5625 -17.9375 C 22.445312 -15.96875 21.988281 -13.992188 21.1875 -12.015625 C 20.382812 -10.046875 19.300781 -8.078125 17.9375 -6.109375 C 23 -8.328125 27.378906 -10.390625 31.078125 -12.296875 C 34.773438 -14.210938 38.101562 -15.785156 41.0625 -17.015625 Z M -5.546875 2.59375 C -6.410156 2.59375 -7.519531 2.40625 -8.875 2.03125 C -10.601562 4.007812 -11.929688 5.859375 -12.859375 7.578125 C -13.785156 9.304688 -13.628906 10.296875 -12.390625 10.546875 C -10.785156 10.796875 -8.503906 10.363281 -5.546875 9.25 C -2.585938 8.132812 1.171875 5.484375 5.734375 1.296875 C 4.867188 1.421875 4.066406 1.570312 3.328125 1.75 C 2.585938 1.9375 1.847656 2.15625 1.109375 2.40625 C -0.00390625 2.53125 -1.082031 2.625 -2.125 2.6875 C -3.175781 2.75 -4.316406 2.71875 -5.546875 2.59375 Z M 16.65625 -20.53125 C 14.800781 -21.394531 12.394531 -21.332031 9.4375 -20.34375 C 6.476562 -19.363281 3.578125 -17.851562 0.734375 -15.8125 C -2.097656 -13.78125 -4.316406 -11.46875 -5.921875 -8.875 C -4.316406 -9.5 -3.019531 -9.6875 -2.03125 -9.4375 C -1.050781 -9.1875 -0.5 -8.753906 -0.375 -8.140625 C 0.488281 -7.273438 0.613281 -6.535156 0 -5.921875 C -0.613281 -5.304688 -2.09375 -4.007812 -4.4375 -2.03125 C -2.59375 -1.664062 -0.191406 -1.695312 2.765625 -2.125 C 5.734375 -2.5625 8.265625 -2.960938 10.359375 -3.328125 C 11.585938 -4.804688 12.972656 -6.78125 14.515625 -9.25 C 16.054688 -11.71875 17.164062 -14.0625 17.84375 -16.28125 C 18.53125 -18.5 18.132812 -19.914062 16.65625 -20.53125 Z M 16.65625 -20.53125 "/></g></g></g><g fill="#000000" fill-opacity="1"><g transform="translate(923.120232, 412.124618)"><g><path d="M -19.609375 13.140625 C -21.460938 11.773438 -21.832031 9.921875 -20.71875 7.578125 C -17.757812 2.035156 -14.429688 -3.320312 -10.734375 -8.5 C -7.035156 -13.6875 -3.085938 -18.625 1.109375 -23.3125 C 1.597656 -23.800781 2.148438 -24.226562 2.765625 -24.59375 C 3.390625 -24.96875 4.316406 -24.847656 5.546875 -24.234375 C 1.597656 -17.578125 -1.546875 -12.273438 -3.890625 -8.328125 C -6.234375 -4.378906 -7.925781 -1.390625 -8.96875 0.640625 C -10.019531 2.679688 -10.671875 4.132812 -10.921875 5 C -8.453125 3.019531 -5.644531 0.582031 -2.5 -2.3125 C 0.644531 -5.207031 3.910156 -8.257812 7.296875 -11.46875 C 10.691406 -14.675781 14.023438 -17.632812 17.296875 -20.34375 C 20.566406 -23.0625 23.679688 -25.222656 26.640625 -26.828125 C 28.734375 -28.054688 30.644531 -28.175781 32.375 -27.1875 C 34.101562 -26.207031 35.457031 -24.882812 36.4375 -23.21875 C 37.425781 -21.550781 37.738281 -20.164062 37.375 -19.0625 C 37.25 -17.820312 36.445312 -15.90625 34.96875 -13.3125 C 33.488281 -10.726562 31.851562 -8.015625 30.0625 -5.171875 C 28.269531 -2.335938 26.878906 0.28125 25.890625 2.6875 C 24.910156 5.09375 24.851562 6.785156 25.71875 7.765625 C 26.582031 8.628906 28.1875 8.472656 30.53125 7.296875 C 32.875 6.128906 35.675781 4.3125 38.9375 1.84375 C 42.207031 -0.613281 45.566406 -3.289062 49.015625 -6.1875 C 52.472656 -9.09375 55.679688 -11.804688 58.640625 -14.328125 C 61.597656 -16.859375 64.003906 -18.742188 65.859375 -19.984375 C 67.335938 -21.210938 68.226562 -21.796875 68.53125 -21.734375 C 68.84375 -21.671875 68.9375 -21.394531 68.8125 -20.90625 C 68.695312 -20.414062 68.515625 -19.984375 68.265625 -19.609375 C 66.785156 -18.003906 64.535156 -15.8125 61.515625 -13.03125 C 58.492188 -10.257812 55.160156 -7.332031 51.515625 -4.25 C 47.878906 -1.164062 44.332031 1.726562 40.875 4.4375 C 37.425781 7.15625 34.46875 9.253906 32 10.734375 C 30.394531 11.710938 28.515625 12.359375 26.359375 12.671875 C 24.203125 12.984375 22.320312 12.457031 20.71875 11.09375 C 18.5 9.375 17.359375 7.742188 17.296875 6.203125 C 17.234375 4.660156 17.507812 2.898438 18.125 0.921875 C 19.363281 -2.523438 20.9375 -5.914062 22.84375 -9.25 C 24.757812 -12.582031 26.457031 -15.445312 27.9375 -17.84375 C 29.414062 -20.25 29.96875 -21.640625 29.59375 -22.015625 C 28.976562 -22.265625 27.40625 -21.429688 24.875 -19.515625 C 22.351562 -17.609375 19.425781 -15.203125 16.09375 -12.296875 C 12.757812 -9.398438 9.425781 -6.410156 6.09375 -3.328125 C 2.769531 -0.242188 -0.148438 2.5 -2.671875 4.90625 C -5.203125 7.3125 -6.78125 8.820312 -7.40625 9.4375 C -8.257812 10.300781 -9.148438 11.132812 -10.078125 11.9375 C -11.003906 12.738281 -11.960938 13.507812 -12.953125 14.25 C -14.179688 15.113281 -15.347656 15.296875 -16.453125 14.796875 C -17.566406 14.304688 -18.617188 13.753906 -19.609375 13.140625 Z M -19.609375 13.140625 "/></g></g></g><g fill="#000000" fill-opacity="1"><g transform="translate(991.567433, 412.124618)"><g><path d="M 19.609375 11.46875 C 19.734375 14.550781 18.53125 18.925781 16 24.59375 C 13.46875 30.269531 9.921875 36.625 5.359375 43.65625 C 0.796875 50.6875 -4.472656 57.992188 -10.453125 65.578125 C -16.429688 73.160156 -22.78125 80.5 -29.5 87.59375 C -36.226562 94.6875 -43.046875 101.097656 -49.953125 106.828125 C -56.859375 112.566406 -63.515625 117.128906 -69.921875 120.515625 C -76.335938 123.910156 -82.195312 125.671875 -87.5 125.796875 C -92.800781 125.921875 -97.179688 123.882812 -100.640625 119.6875 C -102.609375 117.226562 -103.53125 114.269531 -103.40625 110.8125 C -103.289062 107.363281 -102.367188 103.664062 -100.640625 99.71875 C -98.910156 95.769531 -96.753906 92.007812 -94.171875 88.4375 C -88.367188 80.414062 -80.222656 72.179688 -69.734375 63.734375 C -59.253906 55.285156 -47.046875 46.648438 -33.109375 37.828125 C -19.171875 29.015625 -4.125 20.164062 12.03125 11.28125 C 11.53125 11.039062 11.21875 10.921875 11.09375 10.921875 C 9.375 9.929688 7.15625 9.585938 4.4375 9.890625 C 1.726562 10.203125 -0.976562 10.789062 -3.6875 11.65625 C -6.40625 12.519531 -8.691406 13.320312 -10.546875 14.0625 C -11.898438 14.800781 -13.007812 15.382812 -13.875 15.8125 C -14.738281 16.25 -15.910156 16.773438 -17.390625 17.390625 C -17.878906 17.640625 -18.367188 17.609375 -18.859375 17.296875 C -19.359375 16.984375 -19.914062 16.582031 -20.53125 16.09375 C -21.644531 15.351562 -21.894531 14.800781 -21.28125 14.4375 L -21.28125 14.25 C -18.4375 12.144531 -15.597656 10.320312 -12.765625 8.78125 C -9.929688 7.238281 -7.460938 6.097656 -5.359375 5.359375 C -5.359375 5.359375 -5.300781 5.359375 -5.1875 5.359375 C -2.59375 3.753906 0.765625 1.691406 4.890625 -0.828125 C 9.023438 -3.359375 13.160156 -6.164062 17.296875 -9.25 C 21.429688 -12.332031 24.945312 -15.507812 27.84375 -18.78125 C 30.738281 -22.050781 32.375 -25.164062 32.75 -28.125 C 32.988281 -30.707031 32.179688 -32.125 30.328125 -32.375 C 28.484375 -32.625 26.113281 -32.191406 23.21875 -31.078125 C 20.320312 -29.972656 17.390625 -28.585938 14.421875 -26.921875 C 11.460938 -25.253906 8.96875 -23.769531 6.9375 -22.46875 C 4.90625 -21.175781 3.890625 -20.53125 3.890625 -20.53125 C 3.023438 -19.914062 1.789062 -19.609375 0.1875 -19.609375 C -0.3125 -19.609375 -0.898438 -19.726562 -1.578125 -19.96875 C -2.253906 -20.21875 -2.34375 -20.53125 -1.84375 -20.90625 C -0.125 -22.257812 2.148438 -23.859375 4.984375 -25.703125 C 7.828125 -27.554688 10.882812 -29.347656 14.15625 -31.078125 C 17.425781 -32.804688 20.601562 -34.007812 23.6875 -34.6875 C 26.769531 -35.363281 29.421875 -35.148438 31.640625 -34.046875 C 33.859375 -33.054688 35.519531 -31.421875 36.625 -29.140625 C 37.738281 -26.859375 37.367188 -23.804688 35.515625 -19.984375 C 34.035156 -17.023438 31.753906 -14.09375 28.671875 -11.1875 C 25.585938 -8.289062 22.285156 -5.609375 18.765625 -3.140625 C 15.253906 -0.671875 12.082031 1.421875 9.25 3.140625 C 12.207031 3.515625 14.179688 4.007812 15.171875 4.625 C 16.160156 5.238281 16.742188 5.851562 16.921875 6.46875 C 17.109375 7.09375 17.445312 7.40625 17.9375 7.40625 C 18.4375 7.40625 19.546875 7.003906 21.265625 6.203125 C 22.992188 5.398438 25.863281 3.882812 29.875 1.65625 C 33.882812 -0.5625 39.585938 -3.640625 46.984375 -7.578125 C 54.390625 -11.523438 64.007812 -16.519531 75.84375 -22.5625 C 76.582031 -22.8125 77.195312 -22.71875 77.6875 -22.28125 C 78.1875 -21.851562 78.3125 -21.578125 78.0625 -21.453125 C 76.46875 -20.347656 73.910156 -18.773438 70.390625 -16.734375 C 66.878906 -14.703125 62.929688 -12.421875 58.546875 -9.890625 C 54.171875 -7.367188 49.703125 -4.875 45.140625 -2.40625 C 40.578125 0.0625 36.351562 2.34375 32.46875 4.4375 C 28.582031 6.53125 25.46875 8.222656 23.125 9.515625 C 20.78125 10.816406 19.609375 11.46875 19.609375 11.46875 Z M -97.859375 105.265625 C -98.847656 107.359375 -99.460938 109.640625 -99.703125 112.109375 C -99.953125 114.578125 -99.398438 116.675781 -98.046875 118.40625 C -95.953125 121.238281 -92.804688 122.253906 -88.609375 121.453125 C -84.421875 120.648438 -79.550781 118.457031 -74 114.875 C -68.445312 111.300781 -62.523438 106.769531 -56.234375 101.28125 C -49.953125 95.800781 -43.601562 89.757812 -37.1875 83.15625 C -30.769531 76.5625 -24.601562 69.8125 -18.6875 62.90625 C -12.769531 56 -7.4375 49.335938 -2.6875 42.921875 C 2.0625 36.503906 5.882812 30.796875 8.78125 25.796875 C 11.6875 20.804688 13.320312 16.894531 13.6875 14.0625 C 13.195312 14.1875 11.097656 15.328125 7.390625 17.484375 C 3.691406 19.640625 -1.082031 22.597656 -6.9375 26.359375 C -12.789062 30.117188 -19.265625 34.40625 -26.359375 39.21875 C -33.453125 44.03125 -40.695312 49.207031 -48.09375 54.75 C -55.5 60.300781 -62.53125 66.003906 -69.1875 71.859375 C -75.851562 77.722656 -81.710938 83.492188 -86.765625 89.171875 C -91.816406 94.847656 -95.515625 100.210938 -97.859375 105.265625 Z M -97.859375 105.265625 "/></g></g></g><g fill="#000000" fill-opacity="1"><g transform="translate(1060.754196, 412.124618)"><g><path d="M -17.765625 15.359375 C -19.734375 13.753906 -20.65625 11.347656 -20.53125 8.140625 C -20.40625 4.929688 -19.328125 1.382812 -17.296875 -2.5 C -15.265625 -6.382812 -12.457031 -10.144531 -8.875 -13.78125 C -5.300781 -17.414062 -1.046875 -20.40625 3.890625 -22.75 C 5.859375 -23.738281 8.257812 -24.234375 11.09375 -24.234375 C 13.9375 -24.234375 16.46875 -23.769531 18.6875 -22.84375 C 20.90625 -21.914062 22.078125 -20.65625 22.203125 -19.0625 C 22.203125 -19.0625 22.632812 -19.550781 23.5 -20.53125 C 24.363281 -21.519531 25.71875 -22.816406 27.5625 -24.421875 C 28.675781 -25.648438 30.25 -26.234375 32.28125 -26.171875 C 34.3125 -26.109375 36.128906 -25.769531 37.734375 -25.15625 C 39.335938 -24.539062 39.832031 -23.925781 39.21875 -23.3125 C 31.695312 -14.925781 26.578125 -7.429688 23.859375 -0.828125 C 21.148438 5.765625 20.78125 9.800781 22.75 11.28125 C 23.738281 11.894531 25.492188 11.523438 28.015625 10.171875 C 30.546875 8.816406 33.539062 6.84375 37 4.25 C 40.457031 1.664062 43.972656 -1.070312 47.546875 -3.96875 C 51.117188 -6.875 54.507812 -9.648438 57.71875 -12.296875 C 60.925781 -14.953125 63.546875 -17.050781 65.578125 -18.59375 C 67.617188 -20.132812 68.757812 -20.71875 69 -20.34375 C 69.125 -20.101562 68.257812 -18.960938 66.40625 -16.921875 C 64.5625 -14.890625 62.097656 -12.363281 59.015625 -9.34375 C 55.929688 -6.320312 52.507812 -3.207031 48.75 0 C 44.988281 3.207031 41.222656 6.132812 37.453125 8.78125 C 33.691406 11.4375 30.269531 13.410156 27.1875 14.703125 C 24.101562 16.003906 21.640625 16.222656 19.796875 15.359375 C 17.078125 13.992188 15.101562 11.925781 13.875 9.15625 C 12.644531 6.382812 13.203125 2.160156 15.546875 -3.515625 C 13.203125 -0.429688 10.515625 2.585938 7.484375 5.546875 C 4.460938 8.503906 1.351562 11.0625 -1.84375 13.21875 C -5.050781 15.382812 -8.039062 16.742188 -10.8125 17.296875 C -13.59375 17.847656 -15.910156 17.203125 -17.765625 15.359375 Z M 19.421875 -18.3125 C 18.191406 -20.164062 16.375 -20.8125 13.96875 -20.25 C 11.5625 -19.695312 8.9375 -18.34375 6.09375 -16.1875 C 3.257812 -14.03125 0.457031 -11.46875 -2.3125 -8.5 C -5.082031 -5.539062 -7.484375 -2.550781 -9.515625 0.46875 C -11.554688 3.488281 -13.007812 6.195312 -13.875 8.59375 C -14.738281 11 -14.675781 12.695312 -13.6875 13.6875 C -13.070312 14.300781 -11.46875 14.019531 -8.875 12.84375 C -6.289062 11.675781 -3.640625 9.921875 -0.921875 7.578125 C 2.035156 4.992188 5.207031 1.851562 8.59375 -1.84375 C 11.988281 -5.550781 14.859375 -8.695312 17.203125 -11.28125 C 17.816406 -11.894531 18.492188 -12.941406 19.234375 -14.421875 C 19.972656 -15.910156 20.035156 -17.207031 19.421875 -18.3125 Z M 19.421875 -18.3125 "/></g></g></g><g fill="#000000" fill-opacity="1"><g transform="translate(1126.426343, 412.124618)"><g><path d="M 127.65625 -107.484375 C 125.675781 -101.441406 122.21875 -95.398438 117.28125 -89.359375 C 112.351562 -83.316406 106.46875 -77.394531 99.625 -71.59375 C 92.78125 -65.800781 85.472656 -60.25 77.703125 -54.9375 C 69.929688 -49.632812 62.160156 -44.765625 54.390625 -40.328125 C 46.617188 -35.890625 39.367188 -31.941406 32.640625 -28.484375 C 25.921875 -25.035156 20.15625 -22.257812 15.34375 -20.15625 C 10.539062 -18.0625 7.210938 -16.707031 5.359375 -16.09375 C 4.492188 -14.238281 3.132812 -11.492188 1.28125 -7.859375 C -0.5625 -4.222656 -2.4375 -0.1875 -4.34375 4.25 C -6.257812 8.695312 -7.863281 13.046875 -9.15625 17.296875 C -10.445312 21.554688 -11.15625 25.164062 -11.28125 28.125 C -11.40625 31.082031 -10.484375 32.867188 -8.515625 33.484375 C -6.046875 34.347656 -2.4375 33.851562 2.3125 32 C 7.0625 30.15625 12.425781 27.410156 18.40625 23.765625 C 24.382812 20.128906 30.519531 16.125 36.8125 11.75 C 43.101562 7.375 49.082031 3.03125 54.75 -1.28125 C 60.425781 -5.601562 65.300781 -9.429688 69.375 -12.765625 C 73.445312 -16.097656 76.222656 -18.378906 77.703125 -19.609375 C 78.316406 -20.097656 78.898438 -20.066406 79.453125 -19.515625 C 80.015625 -18.960938 79.984375 -18.4375 79.359375 -17.9375 C 77.140625 -15.71875 73.992188 -12.820312 69.921875 -9.25 C 65.859375 -5.675781 61.234375 -1.796875 56.046875 2.390625 C 50.867188 6.585938 45.441406 10.753906 39.765625 14.890625 C 34.097656 19.023438 28.488281 22.878906 22.9375 26.453125 C 17.382812 30.023438 12.203125 32.984375 7.390625 35.328125 C 2.585938 37.671875 -1.476562 39.09375 -4.8125 39.59375 C -5.675781 39.71875 -6.9375 39.75 -8.59375 39.6875 C -10.257812 39.625 -11.585938 39.34375 -12.578125 38.84375 C -16.648438 36.625 -18.71875 32.460938 -18.78125 26.359375 C -18.84375 20.253906 -17.300781 12.882812 -14.15625 4.25 C -11.007812 -4.375 -6.628906 -13.710938 -1.015625 -23.765625 C 4.597656 -33.816406 11.101562 -43.992188 18.5 -54.296875 C 25.894531 -64.597656 33.785156 -74.429688 42.171875 -83.796875 C 50.566406 -93.171875 59.109375 -101.492188 67.796875 -108.765625 C 76.492188 -116.046875 84.941406 -121.660156 93.140625 -125.609375 C 101.347656 -129.554688 108.96875 -131.222656 116 -130.609375 C 119.320312 -130.484375 122.1875 -129.523438 124.59375 -127.734375 C 127 -125.953125 128.570312 -123.363281 129.3125 -119.96875 C 130.050781 -116.582031 129.5 -112.421875 127.65625 -107.484375 Z M 112.84375 -127.28125 C 106.800781 -126.414062 100.140625 -123.671875 92.859375 -119.046875 C 85.585938 -114.421875 78.066406 -108.46875 70.296875 -101.1875 C 62.523438 -93.914062 54.847656 -85.835938 47.265625 -76.953125 C 39.679688 -68.078125 32.554688 -58.921875 25.890625 -49.484375 C 19.234375 -40.046875 13.441406 -30.953125 8.515625 -22.203125 C 10.359375 -22.941406 13.6875 -24.484375 18.5 -26.828125 C 23.3125 -29.171875 29.078125 -32.191406 35.796875 -35.890625 C 42.515625 -39.585938 49.695312 -43.78125 57.34375 -48.46875 C 64.988281 -53.15625 72.539062 -58.148438 80 -63.453125 C 87.46875 -68.753906 94.40625 -74.269531 100.8125 -80 C 107.226562 -85.738281 112.535156 -91.472656 116.734375 -97.203125 C 120.929688 -102.941406 123.519531 -108.523438 124.5 -113.953125 C 125.863281 -119.878906 125.398438 -123.734375 123.109375 -125.515625 C 120.828125 -127.304688 117.40625 -127.894531 112.84375 -127.28125 Z M 112.84375 -127.28125 "/></g></g></g><g fill="#000000" fill-opacity="1"><g transform="translate(1207.453072, 412.124618)"><g><path d="M 0.921875 14.609375 C -9.191406 17.328125 -15.601562 15.726562 -18.3125 9.8125 C -19.550781 6.96875 -19.890625 4.15625 -19.328125 1.375 C -18.773438 -1.394531 -17.726562 -4.070312 -16.1875 -6.65625 C -14.644531 -9.25 -13.070312 -11.53125 -11.46875 -13.5 C -9.5 -15.96875 -6.910156 -18.15625 -3.703125 -20.0625 C -0.492188 -21.976562 2.863281 -23.304688 6.375 -24.046875 C 9.894531 -24.785156 12.953125 -24.539062 15.546875 -23.3125 C 18.003906 -22.320312 19.632812 -20.59375 20.4375 -18.125 C 21.238281 -15.664062 20.78125 -13.507812 19.0625 -11.65625 C 15.601562 -8.195312 11.53125 -5.453125 6.84375 -3.421875 C 2.15625 -1.390625 -2.097656 -0.554688 -5.921875 -0.921875 C -7.890625 -1.046875 -9.179688 -1.320312 -9.796875 -1.75 C -10.421875 -2.1875 -10.851562 -2.097656 -11.09375 -1.484375 C -12.570312 2.460938 -12.632812 5.421875 -11.28125 7.390625 C -9.925781 9.367188 -8.265625 10.359375 -6.296875 10.359375 C -3.210938 10.609375 0.300781 10.019531 4.25 8.59375 C 8.195312 7.175781 12.296875 5.265625 16.546875 2.859375 C 20.804688 0.460938 24.878906 -2.054688 28.765625 -4.703125 C 32.648438 -7.359375 36.070312 -9.765625 39.03125 -11.921875 C 41.988281 -14.085938 44.148438 -15.664062 45.515625 -16.65625 C 47.234375 -18.007812 48.335938 -18.65625 48.828125 -18.59375 C 49.328125 -18.53125 48.773438 -17.632812 47.171875 -15.90625 C 43.960938 -13.195312 39.953125 -9.804688 35.140625 -5.734375 C 30.335938 -1.660156 25.035156 2.285156 19.234375 6.109375 C 13.441406 9.929688 7.335938 12.765625 0.921875 14.609375 Z M 11.09375 -20.53125 C 6.90625 -19.664062 3.054688 -17.816406 -0.453125 -14.984375 C -3.972656 -12.148438 -6.71875 -9.3125 -8.6875 -6.46875 C -5.113281 -5.238281 -1.203125 -5.457031 3.046875 -7.125 C 7.304688 -8.789062 10.976562 -11.226562 14.0625 -14.4375 C 14.800781 -15.175781 15.539062 -16.160156 16.28125 -17.390625 C 17.019531 -18.617188 16.894531 -19.546875 15.90625 -20.171875 C 15.414062 -20.660156 14.738281 -20.90625 13.875 -20.90625 C 13.007812 -20.90625 12.082031 -20.78125 11.09375 -20.53125 Z M 11.09375 -20.53125 "/></g></g></g><g fill="#000000" fill-opacity="1"><g transform="translate(1258.696142, 412.124618)"><g><path d="M 19.609375 11.46875 C 19.734375 14.550781 18.53125 18.925781 16 24.59375 C 13.46875 30.269531 9.921875 36.625 5.359375 43.65625 C 0.796875 50.6875 -4.472656 57.992188 -10.453125 65.578125 C -16.429688 73.160156 -22.78125 80.5 -29.5 87.59375 C -36.226562 94.6875 -43.046875 101.097656 -49.953125 106.828125 C -56.859375 112.566406 -63.515625 117.128906 -69.921875 120.515625 C -76.335938 123.910156 -82.195312 125.671875 -87.5 125.796875 C -92.800781 125.921875 -97.179688 123.882812 -100.640625 119.6875 C -102.609375 117.226562 -103.53125 114.269531 -103.40625 110.8125 C -103.289062 107.363281 -102.367188 103.664062 -100.640625 99.71875 C -98.910156 95.769531 -96.753906 92.007812 -94.171875 88.4375 C -88.367188 80.414062 -80.222656 72.179688 -69.734375 63.734375 C -59.253906 55.285156 -47.046875 46.648438 -33.109375 37.828125 C -19.171875 29.015625 -4.125 20.164062 12.03125 11.28125 C 11.53125 11.039062 11.21875 10.921875 11.09375 10.921875 C 9.375 9.929688 7.15625 9.585938 4.4375 9.890625 C 1.726562 10.203125 -0.976562 10.789062 -3.6875 11.65625 C -6.40625 12.519531 -8.691406 13.320312 -10.546875 14.0625 C -11.898438 14.800781 -13.007812 15.382812 -13.875 15.8125 C -14.738281 16.25 -15.910156 16.773438 -17.390625 17.390625 C -17.878906 17.640625 -18.367188 17.609375 -18.859375 17.296875 C -19.359375 16.984375 -19.914062 16.582031 -20.53125 16.09375 C -21.644531 15.351562 -21.894531 14.800781 -21.28125 14.4375 L -21.28125 14.25 C -18.4375 12.144531 -15.597656 10.320312 -12.765625 8.78125 C -9.929688 7.238281 -7.460938 6.097656 -5.359375 5.359375 C -5.359375 5.359375 -5.300781 5.359375 -5.1875 5.359375 C -2.59375 3.753906 0.765625 1.691406 4.890625 -0.828125 C 9.023438 -3.359375 13.160156 -6.164062 17.296875 -9.25 C 21.429688 -12.332031 24.945312 -15.507812 27.84375 -18.78125 C 30.738281 -22.050781 32.375 -25.164062 32.75 -28.125 C 32.988281 -30.707031 32.179688 -32.125 30.328125 -32.375 C 28.484375 -32.625 26.113281 -32.191406 23.21875 -31.078125 C 20.320312 -29.972656 17.390625 -28.585938 14.421875 -26.921875 C 11.460938 -25.253906 8.96875 -23.769531 6.9375 -22.46875 C 4.90625 -21.175781 3.890625 -20.53125 3.890625 -20.53125 C 3.023438 -19.914062 1.789062 -19.609375 0.1875 -19.609375 C -0.3125 -19.609375 -0.898438 -19.726562 -1.578125 -19.96875 C -2.253906 -20.21875 -2.34375 -20.53125 -1.84375 -20.90625 C -0.125 -22.257812 2.148438 -23.859375 4.984375 -25.703125 C 7.828125 -27.554688 10.882812 -29.347656 14.15625 -31.078125 C 17.425781 -32.804688 20.601562 -34.007812 23.6875 -34.6875 C 26.769531 -35.363281 29.421875 -35.148438 31.640625 -34.046875 C 33.859375 -33.054688 35.519531 -31.421875 36.625 -29.140625 C 37.738281 -26.859375 37.367188 -23.804688 35.515625 -19.984375 C 34.035156 -17.023438 31.753906 -14.09375 28.671875 -11.1875 C 25.585938 -8.289062 22.285156 -5.609375 18.765625 -3.140625 C 15.253906 -0.671875 12.082031 1.421875 9.25 3.140625 C 12.207031 3.515625 14.179688 4.007812 15.171875 4.625 C 16.160156 5.238281 16.742188 5.851562 16.921875 6.46875 C 17.109375 7.09375 17.445312 7.40625 17.9375 7.40625 C 18.4375 7.40625 19.546875 7.003906 21.265625 6.203125 C 22.992188 5.398438 25.863281 3.882812 29.875 1.65625 C 33.882812 -0.5625 39.585938 -3.640625 46.984375 -7.578125 C 54.390625 -11.523438 64.007812 -16.519531 75.84375 -22.5625 C 76.582031 -22.8125 77.195312 -22.71875 77.6875 -22.28125 C 78.1875 -21.851562 78.3125 -21.578125 78.0625 -21.453125 C 76.46875 -20.347656 73.910156 -18.773438 70.390625 -16.734375 C 66.878906 -14.703125 62.929688 -12.421875 58.546875 -9.890625 C 54.171875 -7.367188 49.703125 -4.875 45.140625 -2.40625 C 40.578125 0.0625 36.351562 2.34375 32.46875 4.4375 C 28.582031 6.53125 25.46875 8.222656 23.125 9.515625 C 20.78125 10.816406 19.609375 11.46875 19.609375 11.46875 Z M -97.859375 105.265625 C -98.847656 107.359375 -99.460938 109.640625 -99.703125 112.109375 C -99.953125 114.578125 -99.398438 116.675781 -98.046875 118.40625 C -95.953125 121.238281 -92.804688 122.253906 -88.609375 121.453125 C -84.421875 120.648438 -79.550781 118.457031 -74 114.875 C -68.445312 111.300781 -62.523438 106.769531 -56.234375 101.28125 C -49.953125 95.800781 -43.601562 89.757812 -37.1875 83.15625 C -30.769531 76.5625 -24.601562 69.8125 -18.6875 62.90625 C -12.769531 56 -7.4375 49.335938 -2.6875 42.921875 C 2.0625 36.503906 5.882812 30.796875 8.78125 25.796875 C 11.6875 20.804688 13.320312 16.894531 13.6875 14.0625 C 13.195312 14.1875 11.097656 15.328125 7.390625 17.484375 C 3.691406 19.640625 -1.082031 22.597656 -6.9375 26.359375 C -12.789062 30.117188 -19.265625 34.40625 -26.359375 39.21875 C -33.453125 44.03125 -40.695312 49.207031 -48.09375 54.75 C -55.5 60.300781 -62.53125 66.003906 -69.1875 71.859375 C -75.851562 77.722656 -81.710938 83.492188 -86.765625 89.171875 C -91.816406 94.847656 -95.515625 100.210938 -97.859375 105.265625 Z M -97.859375 105.265625 "/></g></g></g></svg>